# xmcd
#
# Track frame offsets: 
#        150
#        11740
#        24323
#        35058
#        45955
#        64399
#        79984
#        92394
#        106655
#        120538
#
# Disc length: 1805 seconds
#
# Revision: 0
# Processed by: cddbd v1.5.2PL0 Copyright (c) Steve Scherf et al.
# Submitted via: ExactAudioCopy v1.0b3
#
DISCID=71070b0a
DTITLE=Roy Clark - Greatest Hits
DYEAR=1986
DGENRE=Country
TTITLE0=Yesterday When I Was Young
TTITLE1=If I Had To Do It All Over Again
TTITLE2=Honeymoon Feeling
TTITLE3=Come Live With Me
TTITLE4=The Tip Of My Fingers
TTITLE5=Yesterday
TTITLE6=Norwegian Wood
TTITLE7=San Antonio Rose
TTITLE8=Es Mi Reina
TTITLE9=Malagueña
EXTD=
EXTT0=
EXTT1=
EXTT2=
EXTT3=
EXTT4=
EXTT5=
EXTT6=
EXTT7=
EXTT8=
EXTT9=
PLAYORDER=
